<svg width="40" height="40" viewBox="0 0 40 40" fill="none" xmlns="http://www.w3.org/2000/svg">
<path d="M21.0675 29V20.7893H23.8234L24.2361 17.5895H21.0675V15.5466C21.0675 14.6202 21.3247 13.9888 22.6532 13.9888L24.3476 13.9881V11.1261C24.0546 11.0871 23.0487 11 21.8785 11C19.4356 11 17.763 12.4912 17.763 15.2297V17.5895H15V20.7893H17.763V29H21.0675Z" fill="black"/>
<path fill-rule="evenodd" clip-rule="evenodd" d="M20 1C9.50659 1 1 9.50659 1 20C1 30.4934 9.50659 39 20 39C30.4934 39 39 30.4934 39 20C39 9.50659 30.4934 1 20 1ZM0 20C0 8.95431 8.95431 0 20 0C31.0457 0 40 8.95431 40 20C40 31.0457 31.0457 40 20 40C8.95431 40 0 31.0457 0 20Z" fill="black"/>
</svg>
