<svg width="40" height="40" viewBox="0 0 40 40" fill="none" xmlns="http://www.w3.org/2000/svg">
<path fill-rule="evenodd" clip-rule="evenodd" d="M24 12H16C13.8002 12 12 13.7994 12 16V24C12 26.1998 13.8002 28 16 28H24C26.1998 28 28 26.1998 28 24V16C28 13.7994 26.1998 12 24 12ZM20 23.3335C18.1588 23.3335 16.6666 21.8407 16.6666 20.0003C16.6666 18.1591 18.1588 16.6669 20 16.6669C21.8404 16.6669 23.3334 18.1591 23.3334 20.0003C23.3334 21.8407 21.8404 23.3335 20 23.3335ZM23.3334 15.6669C23.3334 16.2191 23.7806 16.6669 24.3334 16.6669C24.8862 16.6669 25.3334 16.2191 25.3334 15.6669C25.3334 15.1147 24.8862 14.6669 24.3334 14.6669C23.7806 14.6669 23.3334 15.1147 23.3334 15.6669Z" fill="black"/>
<path fill-rule="evenodd" clip-rule="evenodd" d="M20 1C9.50659 1 1 9.50659 1 20C1 30.4934 9.50659 39 20 39C30.4934 39 39 30.4934 39 20C39 9.50659 30.4934 1 20 1ZM0 20C0 8.95431 8.95431 0 20 0C31.0457 0 40 8.95431 40 20C40 31.0457 31.0457 40 20 40C8.95431 40 0 31.0457 0 20Z" fill="black"/>
</svg>
